<svg xmlns="http://www.w3.org/2000/svg" viewBox="0 0 558.73 167.51"><defs><style>.cls-1{fill:#fff;}.cls-2{fill:none;}</style></defs><title>aapl-white-full</title><g id="Layer_2" data-name="Layer 2"><g id="Layer_1-2" data-name="Layer 1"><path class="cls-1" d="M233.46,149.41V58.5h-.67l-36.37,90.91H182.28L145.91,58.5h-.67v90.91H128.41V26.17H150L189,124.5h.67l39.06-98.33H251V149.41Zm112.47,0H328.42V133.92h-.68c-4.71,10.78-14.14,16.84-27.61,16.84-19.53,0-31-12.79-31-33.67V59.17h18.19v54.55c0,13.47,6.73,20.88,18.85,20.88,13.47,0,20.88-9.43,20.88-23.57V59.17h18.18l.68,90.24Zm49.83-91.58c20.88,0,33.67,11.44,34.35,28.28H413.27C411.92,77.36,405.86,72,395.76,72s-16.83,4.71-16.83,12.12c0,5.39,4,9.43,13.46,11.45l14.15,3.37c18.18,4,24.91,11.44,24.91,24.24,0,16.16-14.81,27.61-35.69,27.61-22.22,0-35.69-10.77-37-28.28h18.19c1.34,9.42,8.08,14.14,18.85,14.14s17.51-4.72,17.51-12.12c0-6.06-3.37-9.43-12.79-11.45l-14.15-3.37c-16.83-4-24.91-12.12-24.91-25.59C361.42,68.6,374.88,57.83,395.76,57.83ZM444.92,35.6A10.78,10.78,0,1,1,455.7,46.38,10.64,10.64,0,0,1,444.92,35.6Zm1.35,23.57h18.18v90.24H446.27Zm95,31c-2-9.43-8.75-17.51-20.87-17.51-14.14,0-23.57,12.12-23.57,31,0,19.53,9.43,31,23.57,31,11.45,0,18.18-6.06,20.87-16.84h17.51c-2,18.86-16.83,32.33-38.38,32.33-25.59,0-41.76-17.51-41.76-46.47,0-28.28,16.17-46.47,41.76-46.47,22.9,0,36.36,14.82,38.38,32.33l-17.51.67ZM72.51,38.3C67.8,43.68,60.39,48.4,53,47.72c-1.35-8.08,2.69-16.16,6.73-20.87,4.72-6.06,12.8-10.1,19.53-10.1.68,7.4-2,15.48-6.73,21.55Zm6.73,10.77a29.61,29.61,0,0,1,24.25,13.47c-.68.67-14.14,8.75-14.14,25.59,0,20.2,17.51,26.94,17.51,26.94,0,.67-2.7,9.43-8.76,18.85-5.39,8.09-11.45,16.17-20.2,16.17s-11.45-5.39-21.55-5.39-13.47,5.39-21.55,5.39c-8.76,0-15.49-8.76-20.88-16.84C2.47,116.41-6.28,86.11,5.84,65.91,11.23,55.81,22,49.07,32.78,49.07c8.75,0,16.83,6.06,21.55,6.06s14.14-6.73,24.91-6.06Z"/><rect class="cls-2" x="0.09" width="558.55" height="167.51"/></g></g></svg>