<svg xmlns:xlink="http://www.w3.org/1999/xlink" xmlns="http://www.w3.org/2000/svg" class="w-20 fill-current md:w-28" viewBox="0 0 299.7 72.34" width="299.7"  height="72.34" ><path d="M47.28,38.34q-.14-8.82,7.51-13.74-4.3-6.36-12.72-7.16a17.75,17.75,0,0,0-7.65,1.44,37,37,0,0,1-5.63,1.88,16.4,16.4,0,0,1-5.08-1.59,17,17,0,0,0-6.4-1.59A15.62,15.62,0,0,0,9,20.08a17.74,17.74,0,0,0-6.12,6.61A25.08,25.08,0,0,0,0,39.14a41.4,41.4,0,0,0,2.15,13A44.39,44.39,0,0,0,7.3,63.09a35.71,35.71,0,0,0,4.86,6.22c2,2,4,3,6.13,2.89a15.24,15.24,0,0,0,5.28-1.52,14.88,14.88,0,0,1,6.11-1.37,14.49,14.49,0,0,1,5.92,1.37,15,15,0,0,0,5.56,1.45,9.15,9.15,0,0,0,6-2.82,16.72,16.72,0,0,0,2.11-2.39c.77-1,1.61-2.22,2.54-3.61.65-1,1.29-2.1,1.92-3.26a33.84,33.84,0,0,0,1.7-3.69c.23-.53.44-1.07.62-1.62s.38-1.12.56-1.7a15.54,15.54,0,0,1-4.66-3.26A15.91,15.91,0,0,1,47.28,38.34Z" fill="#FFFFFF"></path><polygon points="97.7 51.24 97.36 51.24 83.24 18.49 72.15 18.49 72.15 71.33 81.81 71.33 81.81 37.11 82.26 37.11 94.06 64.28 100.84 64.28 112.61 37.11 113.05 37.11 113.05 71.33 122.83 71.33 122.83 18.49 111.82 18.49 97.7 51.24" fill="#FFFFFF"></polygon><path d="M38.52,11.57A16.06,16.06,0,0,0,42.2,1.45V.72A3.51,3.51,0,0,0,42.13,0a13.51,13.51,0,0,0-5.46,1.66,15.22,15.22,0,0,0-4.76,3.83,15.14,15.14,0,0,0-3.75,9.77V16a3.37,3.37,0,0,0,.07.69C32.07,17,35.51,15.34,38.52,11.57Z" fill="#FFFFFF"></path><rect x="235.77" y="18.49" width="10.86" height="52.84" fill="#FFFFFF"></rect><path d="M279.44,26.89c6.44,0,9.85,5,9.85,10.45H299.7V36.22c0-10.22-7.68-18.73-20.34-18.73-13.56,0-21.65,9.06-21.65,24.5v6c0,15.45,8,24.39,21.62,24.39,13,0,20.37-8.63,20.37-18.24V52.94H289.29c0,5.46-3.34,10-9.78,10s-10.78-4.76-10.78-15V42C268.73,31.88,273,26.89,279.44,26.89Z" fill="#FFFFFF"></path><path d="M164.37,51.86c0,7.09-4.08,11-10.08,11s-10.11-3.87-10.11-11V18.49H133.39V53.41c0,11.27,7.87,18.93,20.9,18.93s20.9-7.66,20.9-18.93V18.49H164.37Z" fill="#FFFFFF"></path><path d="M211.13,40.56l-7.75-1.78c-4.57-1-7-3-7-6.09,0-4.06,3.26-6.62,8.51-6.62,5.91,0,8.87,3.45,9.14,7.17h10.11C224.06,23.9,216.38,17.4,205,17.4c-10.82,0-19.36,5.77-19.36,16.15,0,9,6,13.16,13.18,14.75l7.68,1.81c5.17,1.2,7.79,2.94,7.79,6.54,0,4.11-3.22,6.9-9.25,6.9-6.48,0-9.89-3.49-10.19-7.4H184.39c.15,7.48,5,16.18,20.08,16.18C217.13,72.33,225,66,225,55.57,225,46,218.62,42.22,211.13,40.56Z" fill="#FFFFFF"></path></svg>