<svg xmlns="http://www.w3.org/2000/svg" xmlns:xlink="http://www.w3.org/1999/xlink" viewBox="0 0 562.04 180.24"><defs><style>.cls-1{fill:url(#linear-gradient);}.cls-2{fill:url(#radial-gradient);}.cls-3{fill:url(#radial-gradient-2);}.cls-4{fill:url(#radial-gradient-3);}.cls-5{fill:url(#radial-gradient-4);}.cls-6{fill:url(#radial-gradient-5);}</style><linearGradient id="linear-gradient" x1="555.92" y1="-5291.75" x2="88.3" y2="-5180.47" gradientTransform="matrix(1, 0, 0, -1, 0, -5108.39)" gradientUnits="userSpaceOnUse"><stop offset="0" stop-color="#6d52a2"/><stop offset="0.77" stop-color="#6d52a2"/><stop offset="1" stop-color="#6d52a2" stop-opacity="0"/></linearGradient><radialGradient id="radial-gradient" cx="-898.6" cy="-2308.48" r="0.28" gradientTransform="matrix(420, -432, -287.1, -279.13, -285064.2, -1032350.01)" gradientUnits="userSpaceOnUse"><stop offset="0" stop-color="#5d55a4"/><stop offset="1" stop-color="#5d55a4" stop-opacity="0"/></radialGradient><radialGradient id="radial-gradient-2" cx="-895.14" cy="-2306.78" r="0.28" gradientTransform="matrix(1168, 104, 82.89, -930.92, 1236739.81, -2054213.15)" gradientUnits="userSpaceOnUse"><stop offset="0.25" stop-color="#26bec8"/><stop offset="1" stop-color="#26bec8" stop-opacity="0"/></radialGradient><radialGradient id="radial-gradient-3" cx="-897.71" cy="-2308.07" r="0.28" gradientTransform="matrix(588.5, -474, -324.11, -402.4, -219520.05, -1354098.81)" xlink:href="#radial-gradient"/><radialGradient id="radial-gradient-4" cx="-896.74" cy="-2308.06" r="0.28" gradientTransform="matrix(728, -496, -339.15, -497.78, -129921.38, -1593487.42)" xlink:href="#radial-gradient"/><radialGradient id="radial-gradient-5" cx="-895.29" cy="-2305.38" r="0.28" gradientTransform="matrix(1700, 376, 461.15, -2084.98, 2585164.94, -4470037.94)" gradientUnits="userSpaceOnUse"><stop offset="0" stop-color="#26bec8" stop-opacity="0.73"/><stop offset="0" stop-color="#26bec8"/><stop offset="1" stop-color="#26bec8" stop-opacity="0"/></radialGradient></defs><title>canva-logo-full</title><g id="Layer_2" data-name="Layer 2"><g id="Layer_1-2" data-name="Layer 1"><path class="cls-1" d="M558.13,123.2a2.47,2.47,0,0,0-2.28,1.91c-5.76,16.44-13.54,26.22-20,26.22-3.68,0-5.17-4.1-5.17-10.54,0-16.1,9.64-50.25,14.5-65.81a18.45,18.45,0,0,0,.93-5c0-4.52-2.47-6.74-8.6-6.74-6.6,0-13.71,2.58-20.63,14.7-2.39-10.68-9.61-15.35-19.7-15.35-11.66,0-22.93,7.51-32.2,19.67s-20.18,16.16-28.38,14.2c5.9-14.45,8.09-25.24,8.09-33.25,0-12.56-6.21-20.15-16.24-20.15-15.26,0-24.06,14.56-24.06,29.87,0,11.84,5.37,24,17.17,29.9-9.89,22.37-24.33,42.61-29.81,42.61-7.09,0-9.17-34.65-8.77-59.44.25-14.22,1.43-14.95,1.43-19.25,0-2.47-1.6-4.16-8-4.16-15,0-19.64,12.7-20.34,27.29a72.09,72.09,0,0,1-2.59,16.38c-6.26,22.37-19.19,39.35-27.62,39.35-3.91,0-5-3.91-5-9,0-16.1,9-36.22,9-53.39,0-12.62-5.54-20.6-16-20.6-12.28,0-28.52,14.62-43.89,42,5.06-21,7.14-41.26-7.84-41.26a20.24,20.24,0,0,0-9.3,2.42,5.28,5.28,0,0,0-3,5.11c1.43,22.32-18,79.48-36.39,79.48-3.34,0-5-3.63-5-9.47,0-16.13,9.61-50.19,14.44-65.79a18.47,18.47,0,0,0,1-5.28c0-4.27-2.65-6.47-8.63-6.47-6.58,0-13.72,2.5-20.6,14.62-2.42-10.68-9.64-15.35-19.73-15.35-16.55,0-35,17.51-43.16,40.33-10.88,30.46-32.8,59.88-62.3,59.88-26.79,0-40.92-22.28-40.92-57.49,0-50.84,37.32-92.37,65-92.37,13.23,0,19.56,8.43,19.56,21.35,0,15.66-8.74,22.94-8.74,28.89,0,1.83,1.52,3.63,4.52,3.63,12,0,26.19-14.14,26.19-33.42S119.46,0,91.78,0C46,0,0,46,0,105,0,152,23.16,180.24,63.2,180.24c27.32,0,51.17-21.24,64-46,1.47,20.55,10.8,31.28,25,31.28,12.64,0,22.87-7.53,30.68-20.77,3,13.86,11,20.63,21.36,20.63,11.89,0,21.84-7.53,31.31-21.52-.14,11,2.36,21.32,11.88,21.32,4.5,0,9.87-1,10.82-5,10-41.48,34.82-75.34,42.41-75.34,2.25,0,2.86,2.16,2.86,4.72,0,11.27-7.95,34.37-7.95,49.12,0,15.94,6.77,26.47,20.77,26.47,15.51,0,31.28-19,41.79-46.76,3.28,25.94,10.39,46.88,21.52,46.88,13.66,0,37.91-28.75,52.61-59.19a31.69,31.69,0,0,0,22.73-5.34,78.51,78.51,0,0,0-5.62,28.58c0,28.25,13.49,36.17,25.1,36.17,12.61,0,22.84-7.53,30.68-20.77,2.59,11.95,9.19,20.6,21.33,20.6,19,0,35.5-19.42,35.5-35.35C562,125.76,560.24,123.2,558.13,123.2Zm-394.3,26.64c-7.67,0-10.68-7.73-10.68-19.25,0-20,13.69-53.42,28.16-53.42,6.33,0,8.71,7.44,8.71,16.55C190,114,177,149.84,163.83,149.84ZM426.61,90.12c-4.58-5.45-6.24-12.87-6.24-19.47,0-8.15,3-15,6.55-15s4.67,3.52,4.67,8.41C431.59,72.19,428.66,84.14,426.61,90.12Zm59.5,59.72c-7.68,0-10.68-8.88-10.68-19.25,0-19.31,13.68-53.42,28.27-53.42,6.32,0,8.57,7.39,8.57,16.55C512.27,114,499.48,149.84,486.11,149.84Z"/><path class="cls-2" d="M558.13,123.2a2.47,2.47,0,0,0-2.28,1.91c-5.76,16.44-13.54,26.22-20,26.22-3.68,0-5.17-4.1-5.17-10.54,0-16.1,9.64-50.25,14.5-65.81a18.45,18.45,0,0,0,.93-5c0-4.52-2.47-6.74-8.6-6.74-6.6,0-13.71,2.58-20.63,14.7-2.39-10.68-9.61-15.35-19.7-15.35-11.66,0-22.93,7.51-32.2,19.67s-20.18,16.16-28.38,14.2c5.9-14.45,8.09-25.24,8.09-33.25,0-12.56-6.21-20.15-16.24-20.15-15.26,0-24.06,14.56-24.06,29.87,0,11.84,5.37,24,17.17,29.9-9.89,22.37-24.33,42.61-29.81,42.61-7.09,0-9.17-34.65-8.77-59.44.25-14.22,1.43-14.95,1.43-19.25,0-2.47-1.6-4.16-8-4.16-15,0-19.64,12.7-20.34,27.29a72.09,72.09,0,0,1-2.59,16.38c-6.26,22.37-19.19,39.35-27.62,39.35-3.91,0-5-3.91-5-9,0-16.1,9-36.22,9-53.39,0-12.62-5.54-20.6-16-20.6-12.28,0-28.52,14.62-43.89,42,5.06-21,7.14-41.26-7.84-41.26a20.24,20.24,0,0,0-9.3,2.42,5.28,5.28,0,0,0-3,5.11c1.43,22.32-18,79.48-36.39,79.48-3.34,0-5-3.63-5-9.47,0-16.13,9.61-50.19,14.44-65.79a18.47,18.47,0,0,0,1-5.28c0-4.27-2.65-6.47-8.63-6.47-6.58,0-13.72,2.5-20.6,14.62-2.42-10.68-9.64-15.35-19.73-15.35-16.55,0-35,17.51-43.16,40.33-10.88,30.46-32.8,59.88-62.3,59.88-26.79,0-40.92-22.28-40.92-57.49,0-50.84,37.32-92.37,65-92.37,13.23,0,19.56,8.43,19.56,21.35,0,15.66-8.74,22.94-8.74,28.89,0,1.83,1.52,3.63,4.52,3.63,12,0,26.19-14.14,26.19-33.42S119.46,0,91.78,0C46,0,0,46,0,105,0,152,23.16,180.24,63.2,180.24c27.32,0,51.17-21.24,64-46,1.47,20.55,10.8,31.28,25,31.28,12.64,0,22.87-7.53,30.68-20.77,3,13.86,11,20.63,21.36,20.63,11.89,0,21.84-7.53,31.31-21.52-.14,11,2.36,21.32,11.88,21.32,4.5,0,9.87-1,10.82-5,10-41.48,34.82-75.34,42.41-75.34,2.25,0,2.86,2.16,2.86,4.72,0,11.27-7.95,34.37-7.95,49.12,0,15.94,6.77,26.47,20.77,26.47,15.51,0,31.28-19,41.79-46.76,3.28,25.94,10.39,46.88,21.52,46.88,13.66,0,37.91-28.75,52.61-59.19a31.69,31.69,0,0,0,22.73-5.34,78.51,78.51,0,0,0-5.62,28.58c0,28.25,13.49,36.17,25.1,36.17,12.61,0,22.84-7.53,30.68-20.77,2.59,11.95,9.19,20.6,21.33,20.6,19,0,35.5-19.42,35.5-35.35C562,125.76,560.24,123.2,558.13,123.2Zm-394.3,26.64c-7.67,0-10.68-7.73-10.68-19.25,0-20,13.69-53.42,28.16-53.42,6.33,0,8.71,7.44,8.71,16.55C190,114,177,149.84,163.83,149.84ZM426.61,90.12c-4.58-5.45-6.24-12.87-6.24-19.47,0-8.15,3-15,6.55-15s4.67,3.52,4.67,8.41C431.59,72.19,428.66,84.14,426.61,90.12Zm59.5,59.72c-7.68,0-10.68-8.88-10.68-19.25,0-19.31,13.68-53.42,28.27-53.42,6.32,0,8.57,7.39,8.57,16.55C512.27,114,499.48,149.84,486.11,149.84Z"/><path class="cls-3" d="M558.13,123.2a2.47,2.47,0,0,0-2.28,1.91c-5.76,16.44-13.54,26.22-20,26.22-3.68,0-5.17-4.1-5.17-10.54,0-16.1,9.64-50.25,14.5-65.81a18.45,18.45,0,0,0,.93-5c0-4.52-2.47-6.74-8.6-6.74-6.6,0-13.71,2.58-20.63,14.7-2.39-10.68-9.61-15.35-19.7-15.35-11.66,0-22.93,7.51-32.2,19.67s-20.18,16.16-28.38,14.2c5.9-14.45,8.09-25.24,8.09-33.25,0-12.56-6.21-20.15-16.24-20.15-15.26,0-24.06,14.56-24.06,29.87,0,11.84,5.37,24,17.17,29.9-9.89,22.37-24.33,42.61-29.81,42.61-7.09,0-9.17-34.65-8.77-59.44.25-14.22,1.43-14.95,1.43-19.25,0-2.47-1.6-4.16-8-4.16-15,0-19.64,12.7-20.34,27.29a72.09,72.09,0,0,1-2.59,16.38c-6.26,22.37-19.19,39.35-27.62,39.35-3.91,0-5-3.91-5-9,0-16.1,9-36.22,9-53.39,0-12.62-5.54-20.6-16-20.6-12.28,0-28.52,14.62-43.89,42,5.06-21,7.14-41.26-7.84-41.26a20.24,20.24,0,0,0-9.3,2.42,5.28,5.28,0,0,0-3,5.11c1.43,22.32-18,79.48-36.39,79.48-3.34,0-5-3.63-5-9.47,0-16.13,9.61-50.19,14.44-65.79a18.47,18.47,0,0,0,1-5.28c0-4.27-2.65-6.47-8.63-6.47-6.58,0-13.72,2.5-20.6,14.62-2.42-10.68-9.64-15.35-19.73-15.35-16.55,0-35,17.51-43.16,40.33-10.88,30.46-32.8,59.88-62.3,59.88-26.79,0-40.92-22.28-40.92-57.49,0-50.84,37.32-92.37,65-92.37,13.23,0,19.56,8.43,19.56,21.35,0,15.66-8.74,22.94-8.74,28.89,0,1.83,1.52,3.63,4.52,3.63,12,0,26.19-14.14,26.19-33.42S119.46,0,91.78,0C46,0,0,46,0,105,0,152,23.16,180.24,63.2,180.24c27.32,0,51.17-21.24,64-46,1.47,20.55,10.8,31.28,25,31.28,12.64,0,22.87-7.53,30.68-20.77,3,13.86,11,20.63,21.36,20.63,11.89,0,21.84-7.53,31.31-21.52-.14,11,2.36,21.32,11.88,21.32,4.5,0,9.87-1,10.82-5,10-41.48,34.82-75.34,42.41-75.34,2.25,0,2.86,2.16,2.86,4.72,0,11.27-7.95,34.37-7.95,49.12,0,15.94,6.77,26.47,20.77,26.47,15.51,0,31.28-19,41.79-46.76,3.28,25.94,10.39,46.88,21.52,46.88,13.66,0,37.91-28.75,52.61-59.19a31.69,31.69,0,0,0,22.73-5.34,78.51,78.51,0,0,0-5.62,28.58c0,28.25,13.49,36.17,25.1,36.17,12.61,0,22.84-7.53,30.68-20.77,2.59,11.95,9.19,20.6,21.33,20.6,19,0,35.5-19.42,35.5-35.35C562,125.76,560.24,123.2,558.13,123.2Zm-394.3,26.64c-7.67,0-10.68-7.73-10.68-19.25,0-20,13.69-53.42,28.16-53.42,6.33,0,8.71,7.44,8.71,16.55C190,114,177,149.84,163.83,149.84ZM426.61,90.12c-4.58-5.45-6.24-12.87-6.24-19.47,0-8.15,3-15,6.55-15s4.67,3.52,4.67,8.41C431.59,72.19,428.66,84.14,426.61,90.12Zm59.5,59.72c-7.68,0-10.68-8.88-10.68-19.25,0-19.31,13.68-53.42,28.27-53.42,6.32,0,8.57,7.39,8.57,16.55C512.27,114,499.48,149.84,486.11,149.84Z"/><path class="cls-4" d="M558.13,123.2a2.47,2.47,0,0,0-2.28,1.91c-5.76,16.44-13.54,26.22-20,26.22-3.68,0-5.17-4.1-5.17-10.54,0-16.1,9.64-50.25,14.5-65.81a18.45,18.45,0,0,0,.93-5c0-4.52-2.47-6.74-8.6-6.74-6.6,0-13.71,2.58-20.63,14.7-2.39-10.68-9.61-15.35-19.7-15.35-11.66,0-22.93,7.51-32.2,19.67s-20.18,16.16-28.38,14.2c5.9-14.45,8.09-25.24,8.09-33.25,0-12.56-6.21-20.15-16.24-20.15-15.26,0-24.06,14.56-24.06,29.87,0,11.84,5.37,24,17.17,29.9-9.89,22.37-24.33,42.61-29.81,42.61-7.09,0-9.17-34.65-8.77-59.44.25-14.22,1.43-14.95,1.43-19.25,0-2.47-1.6-4.16-8-4.16-15,0-19.64,12.7-20.34,27.29a72.09,72.09,0,0,1-2.59,16.38c-6.26,22.37-19.19,39.35-27.62,39.35-3.91,0-5-3.91-5-9,0-16.1,9-36.22,9-53.39,0-12.62-5.54-20.6-16-20.6-12.28,0-28.52,14.62-43.89,42,5.06-21,7.14-41.26-7.84-41.26a20.24,20.24,0,0,0-9.3,2.42,5.28,5.28,0,0,0-3,5.11c1.43,22.32-18,79.48-36.39,79.48-3.34,0-5-3.63-5-9.47,0-16.13,9.61-50.19,14.44-65.79a18.47,18.47,0,0,0,1-5.28c0-4.27-2.65-6.47-8.63-6.47-6.58,0-13.72,2.5-20.6,14.62-2.42-10.68-9.64-15.35-19.73-15.35-16.55,0-35,17.51-43.16,40.33-10.88,30.46-32.8,59.88-62.3,59.88-26.79,0-40.92-22.28-40.92-57.49,0-50.84,37.32-92.37,65-92.37,13.23,0,19.56,8.43,19.56,21.35,0,15.66-8.74,22.94-8.74,28.89,0,1.83,1.52,3.63,4.52,3.63,12,0,26.19-14.14,26.19-33.42S119.46,0,91.78,0C46,0,0,46,0,105,0,152,23.16,180.24,63.2,180.24c27.32,0,51.17-21.24,64-46,1.47,20.55,10.8,31.28,25,31.28,12.64,0,22.87-7.53,30.68-20.77,3,13.86,11,20.63,21.36,20.63,11.89,0,21.84-7.53,31.31-21.52-.14,11,2.36,21.32,11.88,21.32,4.5,0,9.87-1,10.82-5,10-41.48,34.82-75.34,42.41-75.34,2.25,0,2.86,2.16,2.86,4.72,0,11.27-7.95,34.37-7.95,49.12,0,15.94,6.77,26.47,20.77,26.47,15.51,0,31.28-19,41.79-46.76,3.28,25.94,10.39,46.88,21.52,46.88,13.66,0,37.91-28.75,52.61-59.19a31.69,31.69,0,0,0,22.73-5.34,78.51,78.51,0,0,0-5.62,28.58c0,28.25,13.49,36.17,25.1,36.17,12.61,0,22.84-7.53,30.68-20.77,2.59,11.95,9.19,20.6,21.33,20.6,19,0,35.5-19.42,35.5-35.35C562,125.76,560.24,123.2,558.13,123.2Zm-394.3,26.64c-7.67,0-10.68-7.73-10.68-19.25,0-20,13.69-53.42,28.16-53.42,6.33,0,8.71,7.44,8.71,16.55C190,114,177,149.84,163.83,149.84ZM426.61,90.12c-4.58-5.45-6.24-12.87-6.24-19.47,0-8.15,3-15,6.55-15s4.67,3.52,4.67,8.41C431.59,72.19,428.66,84.14,426.61,90.12Zm59.5,59.72c-7.68,0-10.68-8.88-10.68-19.25,0-19.31,13.68-53.42,28.27-53.42,6.32,0,8.57,7.39,8.57,16.55C512.27,114,499.48,149.84,486.11,149.84Z"/><path class="cls-5" d="M558.13,123.2a2.47,2.47,0,0,0-2.28,1.91c-5.76,16.44-13.54,26.22-20,26.22-3.68,0-5.17-4.1-5.17-10.54,0-16.1,9.64-50.25,14.5-65.81a18.45,18.45,0,0,0,.93-5c0-4.52-2.47-6.74-8.6-6.74-6.6,0-13.71,2.58-20.63,14.7-2.39-10.68-9.61-15.35-19.7-15.35-11.66,0-22.93,7.51-32.2,19.67s-20.18,16.16-28.38,14.2c5.9-14.45,8.09-25.24,8.09-33.25,0-12.56-6.21-20.15-16.24-20.15-15.26,0-24.06,14.56-24.06,29.87,0,11.84,5.37,24,17.17,29.9-9.89,22.37-24.33,42.61-29.81,42.61-7.09,0-9.17-34.65-8.77-59.44.25-14.22,1.43-14.95,1.43-19.25,0-2.47-1.6-4.16-8-4.16-15,0-19.64,12.7-20.34,27.29a72.09,72.09,0,0,1-2.59,16.38c-6.26,22.37-19.19,39.35-27.62,39.35-3.91,0-5-3.91-5-9,0-16.1,9-36.22,9-53.39,0-12.62-5.54-20.6-16-20.6-12.28,0-28.52,14.62-43.89,42,5.06-21,7.14-41.26-7.84-41.26a20.24,20.24,0,0,0-9.3,2.42,5.28,5.28,0,0,0-3,5.11c1.43,22.32-18,79.48-36.39,79.48-3.34,0-5-3.63-5-9.47,0-16.13,9.61-50.19,14.44-65.79a18.47,18.47,0,0,0,1-5.28c0-4.27-2.65-6.47-8.63-6.47-6.58,0-13.72,2.5-20.6,14.62-2.42-10.68-9.64-15.35-19.73-15.35-16.55,0-35,17.51-43.16,40.33-10.88,30.46-32.8,59.88-62.3,59.88-26.79,0-40.92-22.28-40.92-57.49,0-50.84,37.32-92.37,65-92.37,13.23,0,19.56,8.43,19.56,21.35,0,15.66-8.74,22.94-8.74,28.89,0,1.83,1.52,3.63,4.52,3.63,12,0,26.19-14.14,26.19-33.42S119.46,0,91.78,0C46,0,0,46,0,105,0,152,23.16,180.24,63.2,180.24c27.32,0,51.17-21.24,64-46,1.47,20.55,10.8,31.28,25,31.28,12.64,0,22.87-7.53,30.68-20.77,3,13.86,11,20.63,21.36,20.63,11.89,0,21.84-7.53,31.31-21.52-.14,11,2.36,21.32,11.88,21.32,4.5,0,9.87-1,10.82-5,10-41.48,34.82-75.34,42.41-75.34,2.25,0,2.86,2.16,2.86,4.72,0,11.27-7.95,34.37-7.95,49.12,0,15.94,6.77,26.47,20.77,26.47,15.51,0,31.28-19,41.79-46.76,3.28,25.94,10.39,46.88,21.52,46.88,13.66,0,37.91-28.75,52.61-59.19a31.69,31.69,0,0,0,22.73-5.34,78.51,78.51,0,0,0-5.62,28.58c0,28.25,13.49,36.17,25.1,36.17,12.61,0,22.84-7.53,30.68-20.77,2.59,11.95,9.19,20.6,21.33,20.6,19,0,35.5-19.42,35.5-35.35C562,125.76,560.24,123.2,558.13,123.2Zm-394.3,26.64c-7.67,0-10.68-7.73-10.68-19.25,0-20,13.69-53.42,28.16-53.42,6.33,0,8.71,7.44,8.71,16.55C190,114,177,149.84,163.83,149.84ZM426.61,90.12c-4.58-5.45-6.24-12.87-6.24-19.47,0-8.15,3-15,6.55-15s4.67,3.52,4.67,8.41C431.59,72.19,428.66,84.14,426.61,90.12Zm59.5,59.72c-7.68,0-10.68-8.88-10.68-19.25,0-19.31,13.68-53.42,28.27-53.42,6.32,0,8.57,7.39,8.57,16.55C512.27,114,499.48,149.84,486.11,149.84Z"/><path class="cls-6" d="M558.13,123.2a2.47,2.47,0,0,0-2.28,1.91c-5.76,16.44-13.54,26.22-20,26.22-3.68,0-5.17-4.1-5.17-10.54,0-16.1,9.64-50.25,14.5-65.81a18.45,18.45,0,0,0,.93-5c0-4.52-2.47-6.74-8.6-6.74-6.6,0-13.71,2.58-20.63,14.7-2.39-10.68-9.61-15.35-19.7-15.35-11.66,0-22.93,7.51-32.2,19.67s-20.18,16.16-28.38,14.2c5.9-14.45,8.09-25.24,8.09-33.25,0-12.56-6.21-20.15-16.24-20.15-15.26,0-24.06,14.56-24.06,29.87,0,11.84,5.37,24,17.17,29.9-9.89,22.37-24.33,42.61-29.81,42.61-7.09,0-9.17-34.65-8.77-59.44.25-14.22,1.43-14.95,1.43-19.25,0-2.47-1.6-4.16-8-4.16-15,0-19.64,12.7-20.34,27.29a72.09,72.09,0,0,1-2.59,16.38c-6.26,22.37-19.19,39.35-27.62,39.35-3.91,0-5-3.91-5-9,0-16.1,9-36.22,9-53.39,0-12.62-5.54-20.6-16-20.6-12.28,0-28.52,14.62-43.89,42,5.06-21,7.14-41.26-7.84-41.26a20.24,20.24,0,0,0-9.3,2.42,5.28,5.28,0,0,0-3,5.11c1.43,22.32-18,79.48-36.39,79.48-3.34,0-5-3.63-5-9.47,0-16.13,9.61-50.19,14.44-65.79a18.47,18.47,0,0,0,1-5.28c0-4.27-2.65-6.47-8.63-6.47-6.58,0-13.72,2.5-20.6,14.62-2.42-10.68-9.64-15.35-19.73-15.35-16.55,0-35,17.51-43.16,40.33-10.88,30.46-32.8,59.88-62.3,59.88-26.79,0-40.92-22.28-40.92-57.49,0-50.84,37.32-92.37,65-92.37,13.23,0,19.56,8.43,19.56,21.35,0,15.66-8.74,22.94-8.74,28.89,0,1.83,1.52,3.63,4.52,3.63,12,0,26.19-14.14,26.19-33.42S119.46,0,91.78,0C46,0,0,46,0,105,0,152,23.16,180.24,63.2,180.24c27.32,0,51.17-21.24,64-46,1.47,20.55,10.8,31.28,25,31.28,12.64,0,22.87-7.53,30.68-20.77,3,13.86,11,20.63,21.36,20.63,11.89,0,21.84-7.53,31.31-21.52-.14,11,2.36,21.32,11.88,21.32,4.5,0,9.87-1,10.82-5,10-41.48,34.82-75.34,42.41-75.34,2.25,0,2.86,2.16,2.86,4.72,0,11.27-7.95,34.37-7.95,49.12,0,15.94,6.77,26.47,20.77,26.47,15.51,0,31.28-19,41.79-46.76,3.28,25.94,10.39,46.88,21.52,46.88,13.66,0,37.91-28.75,52.61-59.19a31.69,31.69,0,0,0,22.73-5.34,78.51,78.51,0,0,0-5.62,28.58c0,28.25,13.49,36.17,25.1,36.17,12.61,0,22.84-7.53,30.68-20.77,2.59,11.95,9.19,20.6,21.33,20.6,19,0,35.5-19.42,35.5-35.35C562,125.76,560.24,123.2,558.13,123.2Zm-394.3,26.64c-7.67,0-10.68-7.73-10.68-19.25,0-20,13.69-53.42,28.16-53.42,6.33,0,8.71,7.44,8.71,16.55C190,114,177,149.84,163.83,149.84ZM426.61,90.12c-4.58-5.45-6.24-12.87-6.24-19.47,0-8.15,3-15,6.55-15s4.67,3.52,4.67,8.41C431.59,72.19,428.66,84.14,426.61,90.12Zm59.5,59.72c-7.68,0-10.68-8.88-10.68-19.25,0-19.31,13.68-53.42,28.27-53.42,6.32,0,8.57,7.39,8.57,16.55C512.27,114,499.48,149.84,486.11,149.84Z"/></g></g></svg>