<svg xmlns="http://www.w3.org/2000/svg" xmlns:xlink="http://www.w3.org/1999/xlink" viewBox="0 0 558.7 167.51"><defs><style>.cls-1{fill:none;}.cls-2{clip-path:url(#clip-path);}.cls-3{fill:#f27521;}</style><clipPath id="clip-path"><rect class="cls-1" y="34.99" width="558.86" height="97.52"/></clipPath></defs><title>croll-full</title><g id="Layer_2" data-name="Layer 2"><g id="Layer_1-2" data-name="Layer 1"><g class="cls-2"><path class="cls-3" d="M272.84,63C261.44,63,252,64,252,71.61v37.86h10.77V75.11c0-2,5.56-2.34,8.61-2.34,9.8,0,9.6,4.24,9.6,8.27v28.43h10.7V80.81C291.7,68.07,285.32,63,272.84,63ZM547.16,109.5h11V46.31h-11Zm-23.86,0h11V46.31h-11Zm-31.19-8.2c-6.55,0-10.7-2.4-10.7-14.54s4.15-14.55,10.7-14.55,10.69,2.4,10.69,14.55-4.15,14.54-10.68,14.54Zm0-38.2c-14,0-21.74,8.37-21.74,23.66s7.73,23.65,21.74,23.65,21.74-8.37,21.74-23.65S506.11,63.1,492.11,63.1Zm-50.28,5.78v40.61h11V75.23c0-2.68,6.77-2.6,12.91-2.69V63s-23.93-1-23.93,5.88ZM412.47,95.65,402.19,63.73H390.54L407,107.1c-.58,1.62,0,0-8.36,20.47h11.51l6.67-17,17.44-46.86H422.57ZM364,63a24.88,24.88,0,0,0-9.18,1.56V46.31h-11V109.5h11V74.1a17.91,17.91,0,0,1,7.33-1.38c10.28,0,11.2,4.31,11.2,8.35V109.5H384.3V82c0-11.93-7.52-19-20.27-19Zm-30.1,35.67a30.14,30.14,0,0,1-11.44,2.3c-7.73,0-12.54-2.4-12.54-14.19s4.81-14.19,12.54-14.19a30.32,30.32,0,0,1,11.44,2.2V65.58A35.74,35.74,0,0,0,320.65,63c-14,0-21.78,8.48-21.78,23.77s7.77,23.69,21.78,23.69a35.7,35.7,0,0,0,13.28-2.59V98.67ZM231,90.34c0,7.37-2.7,9.88-9.41,9.88s-9.32-2.51-9.32-9.87V63.73H201.43V88.86c0,13.54,4.4,21.55,20.16,21.55s20.25-8,20.25-21.55V63.74H231V90.35ZM180.11,75.26c0-2.71,6.71-2.62,12.85-2.72V63s-23.86-1-23.86,5.88V109.5h11Zm-56.83,11.5C123.28,71.47,131,63,145,63a36,36,0,0,1,13.27,2.57v9.21a30.19,30.19,0,0,0-11.42-2.21c-7.75,0-12.54,2.3-12.54,14.18s4.79,14.18,12.54,14.18a30.11,30.11,0,0,0,11.42-2.3v9.2A35.9,35.9,0,0,1,145,110.42C131,110.42,123.28,102.05,123.28,86.76ZM78.59,91.53a15.65,15.65,0,0,0,12.49-6.16,33.74,33.74,0,0,1-7.35,27.93,34.48,34.48,0,0,1-26.42,12.25A34.8,34.8,0,0,1,44.17,123,34.44,34.44,0,0,1,33,115.61,33.73,33.73,0,0,1,23,91.59,33.68,33.68,0,0,1,27.4,74.91,34.11,34.11,0,0,1,39.55,62.52a34.67,34.67,0,0,1,33.73-1,15.58,15.58,0,0,0-8.21,6.79A15.32,15.32,0,0,0,68.54,87.9,15.71,15.71,0,0,0,78.59,91.53ZM48.87,35c27,0,48.87,21.64,48.87,48.32,0,1,0,1.91-.08,2.85a42.76,42.76,0,0,0-42.85-39.5c-23.72,0-43,19-43,42.48a42.68,42.68,0,0,0,40.34,42.39c-1.1.07-2.2.11-3.32.11C21.88,131.64,0,110,0,83.31S21.88,35,48.87,35Z"/></g><rect class="cls-1" x="0.16" width="558.55" height="167.51"/></g></g></svg>