<svg xmlns="http://www.w3.org/2000/svg" viewBox="0 0 558.86 167.51"><defs><style>.cls-1{fill:#d82028;}.cls-2{fill:none;}</style></defs><title>nflx-full</title><g id="Layer_2" data-name="Layer 2"><g id="Layer_1-2" data-name="Layer 1"><path class="cls-1" d="M76.84,149.54c-8.4,1.47-17,1.91-25.81,3.09l-27-79V156c-8.41.88-16.08,2.06-24,3.24V8.24H22.42L53.1,93.93V8.24H76.84v141.3Zm46.47-86c9.14,0,23.15-.45,31.56-.45V86.7c-10.47,0-22.71,0-31.56.44v35.11c13.86-.89,27.73-2.07,41.74-2.51v22.71l-65.34,5.17V8.24h65.34V31.83H123.31Zm129.5-31.71H228.32V140.39c-8,0-15.93,0-23.6.3V31.84H180.24V8.24h72.57Zm38.34,30.08h32.31v23.6H291.15v53.54H268V8.24h65.93V31.83H291.15Zm81.13,56.49c13.42.3,27,1.33,40.12,2.07v23.3c-21.1-1.32-42.19-2.65-63.72-3.09V8.24h23.6V118.41Zm60,27c7.52.44,15.48.88,23.15,1.77V8.24H432.31ZM558.86,8.24,528.92,80.07l29.94,79.2c-8.85-1.18-17.7-2.8-26.55-4.28l-17-43.65-17.26,40.11c-8.56-1.47-16.81-1.91-25.37-3.09l30.39-69.18L475.67,8.24H501l15.49,39.67L533.05,8.24Z"/><rect class="cls-2" x="0.16" width="558.55" height="167.51"/></g></g></svg>