<svg xmlns="http://www.w3.org/2000/svg" viewBox="0 0 560.15 172.36"><defs><style>.cls-1{fill:#d1edf8;}.cls-2{fill:#0aa8e0;}.cls-3{fill:#fff;}.cls-4{fill:#24303f;}</style></defs><title>prime-logo-full</title><g id="Layer_2" data-name="Layer 2"><g id="Layer_1-2" data-name="Layer 1"><g id="Layer_2-2" data-name="Layer 2"><g id="Ebene_1" data-name="Ebene 1"><path class="cls-1" d="M277.52,172.36v-.28a1.33,1.33,0,0,1,1.19-.49c2-.07,4-.07,6,0a1.54,1.54,0,0,1,1.19.49v.28Z"/><path class="cls-2" d="M285.92,172.08q-4.2-.11-8.4,0c-3.85-.21-7.7-.35-11.55-.63a200.56,200.56,0,0,1-30.31-4.62c-34.36-8-64.53-24-90.85-47.32-2.45-2.17-4.76-4.41-7.14-6.65a5.15,5.15,0,0,1-1.33-1.89,2.58,2.58,0,0,1,.49-2.8,2.48,2.48,0,0,1,2.8-.63,14.71,14.71,0,0,1,1.82.91,272.36,272.36,0,0,0,81.34,33.6A295.84,295.84,0,0,0,252,147.3a268.62,268.62,0,0,0,42.42,1.89,224.39,224.39,0,0,0,22.74-1.89,275.05,275.05,0,0,0,51.94-11.83,245,245,0,0,0,26-10.22,5.85,5.85,0,0,1,4.2-.56,4.35,4.35,0,0,1,3.15,5.25,4.86,4.86,0,0,1-.35.91,7.67,7.67,0,0,1-2.31,2.66A155.83,155.83,0,0,1,373.9,150a205.15,205.15,0,0,1-54.81,18.55A240.08,240.08,0,0,1,285.92,172.08Z"/><path class="cls-2" d="M182.26,30.2c1.75-1.05,3.57-2.17,5.46-3.15a31.29,31.29,0,0,1,15.89-3.5c4,.21,7.63,1.33,10.43,4.27,2.66,2.73,3.64,6.09,3.92,9.73.07.77.07,1.54.07,2.38V76.19c0,3.15-.42,3.57-3.57,3.57h-8.54a13.49,13.49,0,0,1-1.68-.07,1.93,1.93,0,0,1-1.68-1.61,12.8,12.8,0,0,1-.14-2.31V43.36a11.84,11.84,0,0,0-.42-3.85,5.24,5.24,0,0,0-4.76-3.85,24.71,24.71,0,0,0-12,2.31,1.15,1.15,0,0,0-.84,1.26V76.05a9.91,9.91,0,0,1-.14,2,1.68,1.68,0,0,1-1.75,1.68h0c-1.05.07-2.1.07-3.22.07h-7.42c-2.59,0-3.15-.63-3.15-3.22V43.5a16,16,0,0,0-.35-3.64,5.29,5.29,0,0,0-4.9-4.2A24.64,24.64,0,0,0,151.18,38a1.12,1.12,0,0,0-.77,1.33V76.68c0,2.59-.56,3.15-3.15,3.15h-9.38c-2.45,0-3.07-.7-3.07-3.08V28.17a7.42,7.42,0,0,1,.2-1.68,2,2,0,0,1,2-1.33h8.75a2.53,2.53,0,0,1,2.45,2c.35,1,.56,1.89.91,2.94.7,0,1.12-.49,1.61-.77A36.35,36.35,0,0,1,163.15,24a26.51,26.51,0,0,1,10.5,0,13.12,13.12,0,0,1,8.12,5.46,3,3,0,0,0,.42.49C182.12,30.06,182.19,30.06,182.26,30.2Z"/><path class="cls-3" d="M327.35,65.06c.42-1.4.84-2.73,1.26-4.13,3.22-10.85,6.44-21.63,9.66-32.48l.42-1.26a2.86,2.86,0,0,1,2.8-2h10.64c2.66,0,3.22.77,2.31,3.29l-4.2,11.13c-4.69,12.18-9.38,24.43-14.07,36.61-.14.42-.35.84-.49,1.26a3.41,3.41,0,0,1-3.5,2.31q-4.62-.11-9.24,0a4,4,0,0,1-4.2-2.87c-1.75-4.62-3.57-9.31-5.31-13.93-4.2-11-8.47-22-12.67-33a12.51,12.51,0,0,1-.91-2.73c-.21-1.4.28-2.1,1.68-2.1,4-.07,8,0,11.9,0,1.67,0,2.44,1.12,2.86,2.59.77,2.66,1.54,5.39,2.38,8,2.87,9.73,5.67,19.53,8.54,29.26C327.14,65.06,327.21,65.06,327.35,65.06Z"/><path class="cls-2" d="M78.81,32.86A2.09,2.09,0,0,0,80,32a48.37,48.37,0,0,1,4-3.57A18.62,18.62,0,0,1,96.73,24.6c1.82.07,2.45.63,2.59,2.38.14,2.38.07,4.83.07,7.21a13.16,13.16,0,0,1-.14,2.87,2,2,0,0,1-2,1.89,19.66,19.66,0,0,1-2.87-.07,33.54,33.54,0,0,0-13.65,2c-1,.35-1,1-1,1.82v33.6a15.82,15.82,0,0,1-.07,1.82A1.69,1.69,0,0,1,78,79.69a11.34,11.34,0,0,1-1.54.07h-9.1a11.34,11.34,0,0,1-1.54-.07,1.87,1.87,0,0,1-1.68-1.75A13.49,13.49,0,0,1,64,76.26V28.66c0-3.22.35-3.57,3.57-3.57h6.72a2.78,2.78,0,0,1,3.15,2.38C78,29.22,78.39,31,78.81,32.86Z"/><path class="cls-2" d="M406.23,103.83a59.65,59.65,0,0,1,13.65,1.61,22.67,22.67,0,0,1,3.64,1.33,4.72,4.72,0,0,1,2.87,3.85,28.73,28.73,0,0,1,.21,6,77.19,77.19,0,0,1-10.78,33.81,46.69,46.69,0,0,1-8.12,10,5.78,5.78,0,0,1-2.24,1.4,1.63,1.63,0,0,1-2.23-1.68,7.62,7.62,0,0,1,.49-2.1c2.44-6.58,4.82-13.09,6.71-19.88a69.47,69.47,0,0,0,2.38-11.34,21.06,21.06,0,0,0,.07-4.2,5.46,5.46,0,0,0-3.92-5.11,27.07,27.07,0,0,0-6.71-1.26,110.51,110.51,0,0,0-19.25.84l-8.47,1.05a2.1,2.1,0,0,1-2.24-.84,2.36,2.36,0,0,1,.21-2.52,7,7,0,0,1,2.1-2,48.06,48.06,0,0,1,17.15-7.42A83.48,83.48,0,0,1,406.23,103.83Z"/><path class="cls-3" d="M376.91,52.46v25.2a2,2,0,0,1-2.17,2.1c-3.78.07-7.49.07-11.27,0a2,2,0,0,1-2.17-2,8.47,8.47,0,0,1-.07-1.33V28c.07-2.17.63-2.8,2.8-2.8h10.08c2.17,0,2.8.63,2.8,2.8v24.5Z"/><path class="cls-2" d="M106.11,52.32V27.47c.07-1.68.7-2.31,2.38-2.38q5.46-.11,10.92,0c1.61,0,2.1.49,2.24,2.1a15.82,15.82,0,0,1,.07,1.82V75.63c0,.77-.07,1.54-.14,2.31a1.74,1.74,0,0,1-1.68,1.61,6.79,6.79,0,0,1-1.19.07H109a4.62,4.62,0,0,1-1-.07,2,2,0,0,1-1.89-1.82,13.49,13.49,0,0,1-.07-1.68C106.11,68.28,106.11,60.3,106.11,52.32Z"/><path class="cls-2" d="M114.23,0a8.74,8.74,0,0,1,3.29.49c3.78,1.26,5.74,4.55,5.39,8.81a7.82,7.82,0,0,1-6.65,7.14,13.2,13.2,0,0,1-4.69,0c-4-.77-6.93-3.71-6.65-8.75S108.63,0,114.23,0Z"/><path class="cls-3" d="M369.14,0a8.46,8.46,0,0,1,4.13.7A7.36,7.36,0,0,1,378,7.24c.56,6.37-3.71,9.59-9.38,9.45a13,13,0,0,1-2.31-.28c-4.34-1.05-6.58-4.41-6.16-9.24A7.84,7.84,0,0,1,367.67.11,5.19,5.19,0,0,1,369.14,0Z"/><path class="cls-2" d="M53.68,46.58A31.88,31.88,0,0,0,51,36.08c-2.87-6-7.27-10.43-14-12A24.74,24.74,0,0,0,16,28.8a5.61,5.61,0,0,1-1.47,1.05c-.14-.07-.28-.14-.28-.21-.21-.7-.35-1.4-.56-2.1-.56-1.75-1.26-2.38-3.15-2.38-2.1,0-4.27.07-6.37,0A4.88,4.88,0,0,0,0,26.56c0,24.5,0,49.07.07,73.49C1,101.52,2.38,101.8,4,101.73c2.52-.07,5,0,7.56,0,4.41,0,4.41,0,4.41-4.34V77.45c0-.49-.21-1,.28-1.47a23.52,23.52,0,0,0,12.18,4.83A20.54,20.54,0,0,0,44.87,75.7,26,26,0,0,0,52.14,64C54,58.27,54.17,52.46,53.68,46.58ZM37,61.07a10.79,10.79,0,0,1-3.22,5.6,10,10,0,0,1-6.44,2.45,19.21,19.21,0,0,1-10.22-2.24,2,2,0,0,1-1.19-2V52.25c0-4.2.07-8.4,0-12.6a2.13,2.13,0,0,1,1.4-2.17,18.93,18.93,0,0,1,12-1.82,8.55,8.55,0,0,1,6.65,5,19.56,19.56,0,0,1,1.82,7.14A35,35,0,0,1,37,61.07Z"/><path class="cls-4" d="M560,57.5Z"/><path class="cls-3" d="M560.08,48.12v.28a1,1,0,0,1-.28-1v-.56a.07.07,0,0,1,.07-.07h-.07V46h.14c0-.07-.07-.07-.07-.14A24.27,24.27,0,0,0,559.1,42c-2.59-9.24-8.4-15.33-17.85-17.71a34.4,34.4,0,0,0-13.37-.49c-9.45,1.4-16.24,6.44-19.53,15.4a37.45,37.45,0,0,0,.07,26.46c2.8,7.77,8.4,12.67,16.45,14.7A34.67,34.67,0,0,0,538,81c14.7-1.75,20.79-12.88,21.77-22.54h-.07v-1c-.07-.42-.14-.77.28-1v.14a.53.53,0,0,1,.14-.28V48.26C560.15,48.19,560.08,48.19,560.08,48.12Zm-16.8,13.3a12.82,12.82,0,0,1-2,4.06,9.06,9.06,0,0,1-6.65,3.78,12.74,12.74,0,0,1-4-.14,9,9,0,0,1-6.58-5.25,20,20,0,0,1-1.89-6.93,38.32,38.32,0,0,1,.56-12.32A15.68,15.68,0,0,1,524.66,40a9.12,9.12,0,0,1,7.14-4.34,12.74,12.74,0,0,1,4,.14,9,9,0,0,1,6.37,5,20.66,20.66,0,0,1,2,7.91,34.06,34.06,0,0,1,.07,3.78A25.59,25.59,0,0,1,543.28,61.42Z"/><path class="cls-3" d="M437.38.53h-9.73c-2.66,0-3.15.49-3.15,3.15V26.35c0,.49.21,1-.14,1.47-.63-.07-1-.49-1.47-.77-7.28-4.27-14.91-5-22.6-1.47-5.39,2.52-8.75,7.07-10.92,12.46a39.75,39.75,0,0,0-2.45,16.17,33.34,33.34,0,0,0,3.5,14.91c2.66,5.11,6.51,9,12.11,10.71a22.65,22.65,0,0,0,21.27-3.64c.49-.28.77-.77,1.4-.91a10,10,0,0,1,.77,2.45,2.48,2.48,0,0,0,2.45,1.89h1.68c2.52,0,5,.07,7.42,0,2,0,2.52-.63,2.59-2.66V3.19C440,1,439.48.53,437.38.53ZM424.57,52V64.78a1.84,1.84,0,0,1-1.12,2,17.26,17.26,0,0,1-11,2.1A9.59,9.59,0,0,1,405,63.66a19.59,19.59,0,0,1-2-7.07,36.18,36.18,0,0,1,.84-13.16A16,16,0,0,1,405.25,40a9,9,0,0,1,7.35-4.69,21.13,21.13,0,0,1,10.78,1.89,1.93,1.93,0,0,1,1.26,2c-.14,4.34-.07,8.54-.07,12.81Z"/><path class="cls-2" d="M243.57,56.87a46.6,46.6,0,0,0,15.89.21,25.63,25.63,0,0,0,8.75-2.8,13,13,0,0,0,6.44-7.84c2.45-8.82-1.33-17.71-10.5-21a31.32,31.32,0,0,0-13.93-1.33C239.16,25.37,232,31.46,228.66,42c-2.31,7.21-2,14.56-.14,21.84,2.45,9.31,8.61,14.84,17.92,16.8a45.12,45.12,0,0,0,24.29-2.1,3.21,3.21,0,0,0,2.38-3.43c-.07-1.68,0-3.43,0-5.18,0-2.1-.84-2.73-2.87-2.24s-4,.91-6,1.33a34.68,34.68,0,0,1-13.16.14c-5.95-1.19-9.8-6.3-9.45-12.6A18.87,18.87,0,0,1,243.57,56.87Zm-1.75-10.71a19,19,0,0,1,1.33-4.83c2.1-5.11,6.51-6.86,11-6.58a11.43,11.43,0,0,1,3.71.84A5.34,5.34,0,0,1,261.07,40a8,8,0,0,1-.21,3.64c-.84,2.52-2.87,3.57-5.32,4.06a14.15,14.15,0,0,1-4.55.35,54.7,54.7,0,0,1-8.26-.63C241.68,47.28,241.68,47.28,241.82,46.16Z"/><path class="cls-3" d="M479.66,57.57a28.69,28.69,0,0,0,11.76-3,13,13,0,0,0,7.06-9.31,19,19,0,0,0-.07-7.7c-1.47-6.3-5.45-10.22-11.47-12.25A31,31,0,0,0,476.51,24c-11.76.28-20.72,6.23-24.36,18a38.86,38.86,0,0,0,.28,23.45c2.45,8,8.05,12.81,16,15a38,38,0,0,0,10.5,1A44.5,44.5,0,0,0,494,78.57c2-.77,2.51-1.47,2.51-3.64v-5c-.07-2-.91-2.73-2.93-2.24-1.54.42-3,.77-4.55,1.12a35.41,35.41,0,0,1-14.35.49c-4.76-.91-8-3.64-9.24-8.4a28.68,28.68,0,0,1-.77-4.27,2.22,2.22,0,0,1,1,.14A55.23,55.23,0,0,0,479.66,57.57ZM465,46.37a17.36,17.36,0,0,1,2.8-7.63c2.59-3.43,6.16-4.41,10.22-4,.35,0,.63.14,1,.14,4.9.77,6.09,4.69,5.18,8.47-.7,2.8-3,3.85-5.6,4.34a17.89,17.89,0,0,1-4.34.35,68,68,0,0,1-8.47-.7c-.63-.07-.91-.35-.77-1Z"/></g></g></g></g></svg>