<svg xmlns="http://www.w3.org/2000/svg" viewBox="0 0 562.04 167.51"><defs><style>.cls-1{fill:#fff;}.cls-2{fill:#c34b87;}.cls-3{fill:#668e9d;}.cls-4{fill:none;}</style></defs><title>shmx-white-full</title><g id="Layer_2" data-name="Layer 2"><g id="Layer_1-2" data-name="Layer 1"><path class="cls-1" d="M282.35,96.27l-.57-1.4q-5.47-16.89-11-33.76c-.46-1.31-.93-1.78-2.43-1.78-5.82.09-11.72.09-17.54,0A1.94,1.94,0,0,0,248.59,61c-2.06,6.84-4.22,13.69-6.37,20.53-1.41,4.41-2.72,8.81-4.13,13.22-.65-.28-.56-.75-.65-1-2.91-10.88-5.82-21.75-8.63-32.63-.37-1.4-.94-1.69-2.25-1.69-6.94.1-13.88.1-20.91,0-1.87,0-2.44.19-1.69,2.25,1.32,3.85,2.44,7.88,3.66,11.72-18.84-24.94-62.07-20-72.1,10.22-.65-10.87-3.75-20.25-14.81-24.28-12.57-4.59-23.16-1.12-32,9.56V35.52c0-1,.18-2-1.5-1.79-7.32.85-14.72,1.6-22,2.26-1.68.18-2.25.75-2.25,2.53q.15,30.09.1,60.19v1.12c0,.38.09.85-.38,1.13-1.69-5.91-5.91-9.56-11-12.19a72.86,72.86,0,0,0-13.31-5c-3.47-1-6.94-1.87-10.13-3.56-1.5-.75-2.81-1.78-2.53-3.66s1.78-2.72,3.56-3.09a16.65,16.65,0,0,1,5.72,0,49,49,0,0,1,16.5,5.72c1.6.84,2.16.56,2.91-.94,2.16-4.22,4.41-8.44,6.85-12.47.93-1.59.46-2.16-.85-3a57.4,57.4,0,0,0-29.63-7.31A33.45,33.45,0,0,0,15,59.33C6.51,63.93,2.76,71.05,3,80.61c.19,9,5.15,14.54,12.94,18.19a72.72,72.72,0,0,0,11.81,4c3.66,1,7.41,1.88,10.78,3.57a3.47,3.47,0,0,1,2.25,3.65,3.67,3.67,0,0,1-3.19,3.19,16.13,16.13,0,0,1-5.25.28,46.77,46.77,0,0,1-21.56-7.4c-1.22-.75-1.69-.75-2.44.56Q4.5,113,.42,119.34c-.66,1-.57,1.5.46,2.15,13.41,8.82,28,12,43.7,8.82,7.68-1.5,14-5.54,17.34-13.13.56-1.13.85-2.44,1.31-3.56.29,5.34.38,10.78.29,16-.1,2.06.56,2.44,2.43,2.34q10.55-.13,21.1,0c1.87,0,2.25-.47,2.25-2.34-.09-12.28,0-24.57,0-36.94a14.72,14.72,0,0,1,1.5-7.22c2-3.75,5.81-5.72,10.5-5.25A9.21,9.21,0,0,1,109.55,87a19,19,0,0,1,.84,6.09V130c0,1.5.29,2,1.88,2,7.22-.09,14.53-.09,21.75,0,1.6,0,2-.47,1.88-2-.1-4.87,0-9.84,0-14.72V108c7.12,18.38,24.28,26.91,41.63,25.69a40,40,0,0,0,26-11.34,37.31,37.31,0,0,0,11.43-25.88,2.8,2.8,0,0,1,.57,1c3.37,10.88,6.75,21.75,10,32.63A2.12,2.12,0,0,0,228,131.9q9-.14,18,0c1.5,0,2.15-.38,2.53-1.88,2-6.37,4-12.65,6.09-18.93,1.79-5.44,3.57-11,5.44-16.79.38,1,.56,1.69.75,2.25q5.49,17.31,11,34.6c1.13-.28,1.22-1.22,1.41-2.06,3.19-10.22,6.37-20.35,9.47-30.57-.19-.65.28-1.4-.28-2.25m-93.29,3.47c-1.32,5.91-4.88,10-10.88,11.72-10.12,2.72-19.41-5-19.41-17.63a14.94,14.94,0,0,1,8.63-13.4c5.62-2.63,11.25-2.07,16,1.87,5.44,4.6,7.13,10.69,5.63,17.44M534,97.3c-1-1.22-1-2,0-3.18q13.65-16.45,27-32.91c.46-.47,1.12-.94,1-1.88h-2.16c-9.19,0-18.28.09-27.47,0A5,5,0,0,0,528,61.39c-3.84,4.88-7.78,9.66-11.81,14.63-4.22-5.25-8.35-10.22-12.47-15.38a2.6,2.6,0,0,0-2.25-1.31c-13.31,0-26.63.09-39.94,0-1.31,0-1.5.56-1.5,1.69.09,2.16,0,4.31,0,6.37a2.49,2.49,0,0,0-.66.38c-.47-.56-.75-1.22-1.31-1.78-10.22-10.78-25.5-10.5-35.63-4.22S407.61,77.71,406,89.24c-.47,3.28-.37,6.56-.56,9.84a1.7,1.7,0,0,1-.37-.56c-3.85-12.37-7.69-24.84-11.44-37.22-.38-1.31-.85-1.88-2.35-1.88-6.18.1-12.28.1-18.47,0a2,2,0,0,0-2.25,1.69c-1.31,4.41-2.72,8.82-4.22,13.13-2.43,7.41-4.78,14.81-7.4,22.88-4-12.76-7.78-24.94-11.63-37.13-1.22.18-1.31,1.31-1.59,2.06-3.1,9.94-6.28,19.88-9.28,29.81-.19.76-.66,1.51-.1,2.35a5.9,5.9,0,0,1,.47,1.22c3.66,11.53,7.31,23.06,10.88,34.69.37,1.22.75,1.78,2.15,1.78,5.91-.09,11.91-.09,17.82,0a1.91,1.91,0,0,0,2.15-1.59c1.69-5.63,3.47-11.26,5.25-17s3.57-11.44,5.54-17.63c.75,2.81,1.31,5.06,2,7.31,2.35,9,4.79,18.1,7.13,27.1.19.75.09,1.78,1.5,1.78,7.88-.09,15.75,0,23.91,0-1.31-4.22-2.53-8.34-3.75-12.38,5.9,8,13.5,13,23.44,14.07,10.22,1,18.28-3,24.94-11.25,0,3,.09,5.25,0,7.5-.1,1.68.37,2.06,2.06,2.06q19.54-.14,39.1,0a3.58,3.58,0,0,0,3.09-1.5c3.94-5,7.88-9.75,12-14.81,4.13,5.06,8.07,9.93,12.1,14.9a3.44,3.44,0,0,0,3,1.41c9.65-.09,19.31,0,29-.09.56,0,1.12.28,1.59-.38a16.07,16.07,0,0,0-1.22-1.5C551.9,119.05,543,108.18,534,97.3M461.42,97c-.93,8.72-6.93,14.91-14.81,15.19-9,.28-16.22-7.13-16.13-16.78,0-9,6.66-16.32,14.82-16.6C455,78.46,462.46,87,461.42,97m38.91,0c-5.9,6.28-11.81,12.57-17.9,19.13V75.74c6.09,6.56,12,12.84,17.9,19.13.85.75.85,1.21,0,2.15"/><polygon class="cls-2" points="318.73 59.05 293.69 59.05 271.28 131.99 296.22 132.09 318.73 59.05"/><polygon class="cls-3" points="347.6 59.05 322.57 59.05 300.16 131.99 325.1 132.09 347.6 59.05"/><rect class="cls-4" x="1.75" width="558.55" height="167.51"/></g></g></svg>