<svg xmlns:xlink="http://www.w3.org/1999/xlink" class="w-8 text text-msp-red fill-current" xmlns="http://www.w3.org/2000/svg" viewBox="0 0 69.8 121.44" width="69.8"  height="121.44" ><path d="M10.83,29.09l23.31,11.8a5,5,0,0,0,4.53,0L61.3,29.43A15.55,15.55,0,0,0,47.24,1.7L10.83,20.14A5,5,0,0,0,10.83,29.09Z" fill="#F45757"></path><path d="M59,92.32,35.7,80.52a5,5,0,0,0-4.54,0L8.54,92A15.56,15.56,0,1,0,22.6,119.74L59,101.27A5,5,0,0,0,59,92.32Z" fill="#F45757"></path><path d="M65.28,60.66,32.48,44,9.06,32.16a5,5,0,0,0-7.29,4.48L2,56.42a5,5,0,0,0,2.74,4.42L37.36,77.38,60.74,89.24A5,5,0,0,0,68,84.76V65.13A5,5,0,0,0,65.28,60.66Z" fill="#F45757"></path></svg>