<svg xmlns="http://www.w3.org/2000/svg" viewBox="0 0 559.11 167.51"><defs><style>.cls-1{fill:#ed2224;}.cls-2{fill:#fff;}.cls-3{fill:none;}</style></defs><title>yt-white-full</title><g id="Layer_2" data-name="Layer 2"><g id="Layer_1-2" data-name="Layer 1"><g id="layer1"><g id="Layer_1-2-2" data-name="Layer 1-2"><path id="path6" class="cls-1" d="M160.59,44.27a20.55,20.55,0,0,0-14.5-14.49C133.29,26.35,82,26.35,82,26.35s-51.27,0-64.07,3.43A20.55,20.55,0,0,0,3.42,44.27C0,57.07,0,83.75,0,83.75s0,26.69,3.42,39.48a20.56,20.56,0,0,0,14.5,14.5c12.8,3.43,64.09,3.43,64.09,3.43s51.28,0,64.08-3.43a20.56,20.56,0,0,0,14.5-14.5C164,110.44,164,83.75,164,83.75S164,57.07,160.59,44.27Z"/><path id="path8" class="cls-2" d="M65.6,108.36l42.61-24.61L65.6,59.15Z"/><path id="path10" class="cls-2" d="M236.89,62.78v4c0,19.83-8.79,31.42-28,31.42h-2.92v34.71H190.23V34.52h20C228.57,34.52,236.89,42.26,236.89,62.78Zm-16.53,1.41c0-14.31-2.58-17.71-11.49-17.71h-2.93v40h2.7c8.44,0,11.73-6.1,11.73-19.35Zm53.7-4.34-.82,18.65c-6.68-1.41-12.2-.35-14.66,4v50.42H243V61h12.43l1.41,15.58h.59c1.64-11.37,6.92-17.12,13.72-17.12a15.15,15.15,0,0,1,2.92.37ZM292,102.38V106c0,12.67.7,17,6.1,17,5.15,0,6.33-4,6.44-12.2l13.95.82c1.06,15.48-7,22.4-20.75,22.4-16.65,0-21.58-10.9-21.58-30.72V90.77c0-20.88,5.52-31.08,22-31.08s20.87,8.68,20.87,30.37v12.32Zm0-14.77v5.15h11.84V87.64c0-13.22-.94-17-5.95-17s-5.89,3.87-5.89,17Zm107.65-9v54.29H383.48V79.79c0-5.87-1.53-8.8-5.05-8.8-2.81,0-5.39,1.64-7.15,4.69a23.85,23.85,0,0,1,.12,2.93V132.9H355.21V79.79c0-5.87-1.53-8.8-5-8.8-2.81,0-5.29,1.64-7,4.58V132.9H327V61h12.78l1.43,9.15h.24c3.63-6.91,9.5-10.67,16.41-10.67s10.67,3.4,12.43,9.5c3.76-6.21,9.39-9.5,15.83-9.5C395.9,59.5,399.65,66.54,399.65,78.58Zm8.09-36c0-7.74,2.81-10,8.79-10s8.8,2.58,8.8,10c0,8-2.7,10-8.8,10S407.74,50.59,407.74,42.61ZM408.68,61h15.48V132.9H408.68ZM477,61V132.9H464.37l-1.4-8.79h-.35c-3.64,7-8.92,10-15.48,10-9.62,0-14-6.09-14-19.34V61h16.18v52.77c0,6.33,1.32,8.91,4.57,8.91a8,8,0,0,0,6.91-4.57V61Zm82.07,17.56v54.29H542.93V79.79c0-5.87-1.52-8.8-5-8.8-2.82,0-5.4,1.64-7.15,4.69a21.57,21.57,0,0,1,.11,2.9v54.29H514.68V79.79c0-5.87-1.53-8.8-5-8.8-2.82,0-5.29,1.64-7,4.58V132.9H486.42V61h12.76l1.41,9.15h.23c3.64-6.92,9.51-10.68,16.42-10.68s10.67,3.4,12.43,9.51c3.76-6.22,9.38-9.51,15.83-9.51C555.38,59.5,559.11,66.54,559.11,78.58Z"/></g></g><rect class="cls-3" x="0.28" width="558.55" height="167.51"/></g></g></svg>